<svg width="98" height="20" viewBox="0 0 98 20" fill="none" xmlns="http://www.w3.org/2000/svg">
<g clip-path="url(#clip0)">
<path d="M9.30341 19.6188H5.25596L0 5.08214H4.29354L7.32144 15.7941H7.37417L10.4856 5.08214H14.5857L9.30341 19.6188Z" fill="#231F20"/>
<path d="M27.3609 16.7755C27.3609 18.4973 27.7476 18.8784 28.2134 19.0449V19.6188H24.0561C23.8364 18.9354 23.7837 18.7163 23.7002 17.897C22.8168 18.7996 21.582 20 18.9672 20C16.7655 20 14.5066 18.7689 14.5066 15.7634C14.5066 12.92 16.3216 11.4743 18.7738 11.1194L22.2412 10.6024C22.8476 10.5192 23.5903 10.2738 23.5903 9.45455C23.5903 7.84228 22.0522 7.75904 21.059 7.75904C19.1342 7.75904 18.8046 8.93319 18.6903 9.77876H14.9725C15.4119 5.3275 18.5233 4.69661 21.5248 4.69661C23.5903 4.69661 27.3609 5.32312 27.3609 8.90252V16.7755ZM23.5903 12.5433C23.208 12.8412 22.5751 13.0865 20.9755 13.3363C19.5429 13.586 18.3607 13.9365 18.3607 15.5225C18.3607 16.8631 19.4066 17.2749 20.1493 17.2749C21.8544 17.2749 23.5903 16.1796 23.5903 14.4053V12.5433Z" fill="#231F20"/>
<path d="M33.5309 19.6188H29.6768V0H33.5309V19.6188Z" fill="#231F20"/>
<path d="M40.8524 5.08216H43.2474V7.816H40.8524V15.7109C40.8524 16.5564 40.8787 16.885 42.452 16.885C42.6981 16.885 42.975 16.8587 43.2474 16.8324V19.7284C42.641 19.759 42.0345 19.7853 41.4281 19.7853H40.9359C37.6048 19.7853 36.9983 18.5279 36.9983 16.6397V7.816H35.0163V5.08216H36.9983V1.14787H40.8524V5.08216Z" fill="#231F20"/>
<path d="M58.277 15.356C57.2575 18.8565 54.3395 20.0044 51.8345 20.0044C47.7036 20.0044 44.5395 18.0372 44.5395 12.0526C44.5395 10.3045 45.1459 4.70537 51.5577 4.70537C54.4493 4.70537 58.4396 6.07229 58.4396 12.7098V13.3932H48.3935C48.5034 14.4841 48.7231 16.942 51.8345 16.942C52.9068 16.942 54.0055 16.3943 54.3131 15.356H58.277ZM54.4757 10.9047C54.256 8.55203 52.7442 7.84666 51.5049 7.84666C49.6899 7.84666 48.7231 8.99452 48.5034 10.9047H54.4757Z" fill="#231F20"/>
<path d="M72.9243 14.3176C72.7837 15.8204 71.6015 20 66.2357 20C60.7292 20 59.4636 15.8204 59.4636 12.7579C59.4636 8.05696 61.5247 4.69661 66.4818 4.69661C68.7934 4.69661 72.5947 5.73494 72.9507 10.2694H69.0439C68.8769 9.34064 68.3275 7.92114 66.6752 7.92114H66.4818C64.0604 7.92114 63.4275 10.3264 63.4275 12.1271C63.4275 13.7087 63.4847 16.8543 66.3983 16.8543C68.3539 16.8543 69.0131 14.9967 69.0131 14.3133H72.9243V14.3176Z" fill="#231F20"/>
<path d="M87.8968 19.6188H84.0427V10.7952C84.0427 9.73056 83.9856 7.92552 81.5378 7.92552C79.8326 7.92552 78.5099 9.07338 78.5099 11.2859V19.6188H74.6558V0H78.5099V6.96605H78.567C79.0636 5.76561 80.7116 4.70099 82.8034 4.70099C85.6687 4.70099 87.8968 6.36583 87.8968 9.56407V19.6188Z" fill="#231F20"/>
<path d="M98 16.885H90.2918V19.6188H98V16.885Z" fill="#231F20"/>
</g>
<defs>
<clipPath id="clip0">
<rect width="98" height="20" fill="white"/>
</clipPath>
</defs>
</svg>
